<svg
    viewBox="0 0 24 30"
    version="1.1"
    x="0px"
    y="0px"
>
    <g transform="translate(0,-290.65039)" style="" display="inline">
        <path
            style="fill:#fff;"
            d="m 12,292.65039 c -5.5110029,0 -10,4.489 -10,10 0,5.511 4.4889971,10 10,10 5.511003,0 10,-4.489 10,-10 0,-5.511 -4.488997,-10 -10,-10 z m 0,2 c 4.430123,0 8,3.56988 8,8 0,4.43012 -3.569877,8 -8,8 -4.4301226,0 -8,-3.56988 -8,-8 0,-4.43012 3.5698774,-8 8,-8 z"
        />
        <path
            style="fill:#fff;"
            d="m 128.29297,128.29297 c -0.39042,0.39051 -0.39042,1.02355 0,1.41406 l 2.29297,2.29297 -2.29297,2.29297 c -0.39042,0.39051 -0.39042,1.02355 0,1.41406 0.39051,0.39042 1.02355,0.39042 1.41406,0 L 132,133.41406 l 2.29297,2.29297 c 0.39051,0.39042 1.02355,0.39042 1.41406,0 0.39042,-0.39051 0.39042,-1.02355 0,-1.41406 L 133.41406,132 l 2.29297,-2.29297 c 0.39042,-0.39051 0.39042,-1.02355 0,-1.41406 -0.42065,-0.41613 -1.06662,-0.3519 -1.41406,0 L 132,130.58594 l -2.29297,-2.29297 c -0.43038,-0.43466 -1.00697,-0.37447 -1.41406,0 z"
            transform="translate(-120,170.65)"
        />
    </g>
</svg>
